<svg xmlns="http://www.w3.org/2000/svg" width="19" height="122"><defs><clipPath id="a"><path data-name="長方形 1446" transform="translate(-42 -2342)" fill="#fff" opacity=".469" d="M0 0h19v122H0z"/></clipPath></defs><g data-name="マスクグループ 71" transform="translate(42 2342)" clip-path="url(#a)"><path data-name="パス 72026" d="M-26.872-2330.684a.449.449 0 0 0-.252-.357l-.693-.523c-.231-.168-.315-.252-.42-.252a.806.806 0 0 0-.4.273l-.525.63h-6.8l-1.977-1.157a36.7 36.7 0 0 1 .147 4.326c0 1.281 0 2.037-.042 3.276 0 .21-.084 1.26-.084 1.512a.52.52 0 0 0 .567.588c1.134.004 1.071-.966 1.071-1.281h7.329c.021.777.021 1.029.609 1.029.966 0 .966-.735.966-1.05 0-.5-.084-2.772-.105-3.066-.084-1.47-.084-2.478-.084-3.4.168-.084.4-.21.567-.315a.263.263 0 0 0 .126-.233Zm-2.079 3.087H-36.3v-2.814h7.35Zm0 3.444H-36.3v-2.94h7.35Zm3.78-14.411c0-.147-.084-.21-.231-.315l-1.134-.9c-.231-.168-.294-.231-.4-.231-.147 0-.231.147-.336.273l-.672.9h-3.947v-1.365c.126-.063.546-.315.546-.546s-.252-.315-.441-.357l-2.163-.588a6.293 6.293 0 0 1 .525 2.856h-3.717c-.315 0-1.806-.021-3.234-.147l.42.84a12.959 12.959 0 0 1 2.478-.189h11.991c.147.005.315-.037.315-.231Zm2.205 5.15a.417.417 0 0 0-.21-.336l-1.239-.987c-.189-.147-.273-.231-.4-.231-.084 0-.21.126-.315.273l-.819.987h-4.83a29.653 29.653 0 0 0 2.058-2.772c.147-.021.777-.126.777-.42 0-.1-.126-.252-.336-.357l-1.89-1.05a11.546 11.546 0 0 1-1.029 4.6h-7.769c-.294 0-1.785-.021-3.234-.147l.42.84a14.954 14.954 0 0 1 2.482-.19h16.019c.126 0 .315-.021.315-.21Zm-11.613-1.659a2.548 2.548 0 0 0-.714-1.554 4.991 4.991 0 0 0-1.617-1.218l-.147.126a6.4 6.4 0 0 1 .651 2.478c.063.441.147 1.218.924 1.218a1 1 0 0 0 .903-1.05Zm4.053 36.436h-4.053v-2.627h4.053Zm1.953-5.691a.4.4 0 0 0-.189-.315l-.8-.651c-.168-.147-.252-.21-.357-.21-.126 0-.231.084-.357.231l-.462.483h-2.917c.252-.231 1.47-1.365 1.764-1.6.42-.147.567-.21.567-.42a.272.272 0 0 0-.21-.273l-2.184-.819a5.426 5.426 0 0 1 .042.672 11.181 11.181 0 0 1-.42 2.436h-.4l-1.68-.945a19.991 19.991 0 0 1 .21 3.3c0 .714-.147 4.2-.147 4.977 0 .189 0 .588.525.588a1.128 1.128 0 0 0 .924-.5c.084-.168.084-.231.084-.756h4.053c0 .315-.021.84.525.84a.965.965 0 0 0 .987-1.113c0-.42-.1-2.415-.1-2.856s-.021-1.995-.021-2.415c.458-.402.563-.528.563-.654Zm-1.953 2.564h-4.053v-2.52h4.053Zm-5.985.084-.021-.084a25.493 25.493 0 0 1-4.41 2.079 2.785 2.785 0 0 1-.987.063l1.05 1.758c.084.147.21.294.336.294.168 0 .252-.189.462-.693 2.499-2.159 2.981-2.601 3.57-3.419Zm12.432-2.9a.341.341 0 0 0-.147-.294l-1.806-1.344a10.158 10.158 0 0 1-2.168 3.591l.084.126c.483-.21 2.751-1.47 3.234-1.806a4.174 4.174 0 0 0 .462.042.3.3 0 0 0 .341-.315Zm-.105 5.586c0-1.554-3.318-2.247-4.2-2.415v.1a8.8 8.8 0 0 1 2.058 2.058c.777 1.092.861 1.2 1.3 1.2a.921.921 0 0 0 .842-.943Zm-13.545-4.62c0-1.491-2.457-2.142-3.255-2.352l-.042.084a7.093 7.093 0 0 1 1.344 2.037c.609 1.113.672 1.239 1.134 1.239.588 0 .819-.63.819-1.008Zm14.259 8.25a.553.553 0 0 0-.189-.336l-1.155-1.05c-.147-.126-.252-.21-.378-.21-.105 0-.189.084-.315.231l-.861 1.071h-5.418v-.777q.5-.315.5-.567c0-.168-.168-.273-.4-.315l-1.806-.4a8.377 8.377 0 0 1 .294 2.058h-4.951c-.357 0-1.827-.021-3.234-.147l.42.84a14.83 14.83 0 0 1 2.457-.189h4.347a32.048 32.048 0 0 1-7.014 5.8l.063.147a18.571 18.571 0 0 0 7.938-4.977c.021 1.008-.042 2.352-.063 2.856 0 .4-.147 2.247-.147 2.5 0 .147 0 .546.651.546.987 0 .987-.672.987-1.113 0-.1-.063-2.583-.063-3.087-.021-1.008 0-1.638 0-2.667h.273a11.9 11.9 0 0 0 6.216 5.712 4.414 4.414 0 0 1 1.743-1.638v-.088a13.1 13.1 0 0 1-7.665-3.99h7.455c.147.003.315-.06.315-.21Zm.17 23.65a.5.5 0 0 0-.21-.315l-1.344-1.008c-.189-.126-.294-.231-.4-.231s-.21.105-.336.252l-.84 1.029h-12.034c-1.071 0-2.142-.042-3.234-.126l.42.819a15.318 15.318 0 0 1 2.478-.189h5.628v3.019H-35.1l-1.81-.814a21.352 21.352 0 0 1 .189 3.675c0 2.415-.042 5.061-.063 5.565 0 .189-.042 1.008-.042 1.176 0 .252 0 .672.609.672 1.008 0 .945-.987.924-1.344h5.523a4.434 4.434 0 0 0-.042.546.527.527 0 0 0 .588.588.944.944 0 0 0 .945-1.008c0-.672-.084-3.738-.084-4.368-.021-2.037-.021-2.814-.021-3.528.357-.273.63-.462.63-.63a.452.452 0 0 0-.21-.315l-.882-.735c-.147-.126-.231-.189-.315-.189s-.168.084-.252.189l-.42.525h-2.016v-3.024h8.232c.126 0 .317 0 .317-.231Zm-6.449 7.35h-2.1v-3.591h2.1Zm-3.423 0h-2.121v-3.591h2.121Zm3.423 4.326h-2.1v-3.826h2.1Zm-3.423 0h-2.121v-3.826h2.121Zm8.9-8.421c0-.168-.126-.252-.315-.294l-2.142-.567a3.588 3.588 0 0 1 .273 1.05c.126 1.554.1 5.061.084 11.592h-12.302c0-.378-.021-2.331-.021-2.709-.021-3.192-.021-3.549-.021-4.389 0-1.932.021-3.318.021-4.053.483-.294.63-.378.63-.609a.309.309 0 0 0-.252-.336l-2.205-.609c.273.882.357 1.659.357 5.46 0 1.722-.084 7.581-.105 7.917 0 .084-.042.672-.042.735 0 .189 0 .651.651.651 1.029 0 1.008-.819.987-1.554h12.306c0 .147-.021.861-.021 1.008 0 .252.084.609.651.609a1 1 0 0 0 1.029-1.134c0-.063-.021-.189-.021-.357-.189-3.3-.189-8.862-.168-11.7.273-.165.63-.438.63-.716Zm1.218 45.7v-.147a11.647 11.647 0 0 1-8.316-3.465h7.917c.147 0 .336-.042.336-.231a.431.431 0 0 0-.21-.315l-1.092-.8c-.168-.126-.315-.252-.42-.252-.126 0-.21.1-.357.273l-.777.819h-5.834c0-.1.021-.4.021-.525.147-.1.42-.273.42-.483 0-.084-.105-.168-.231-.231l-.609-.273h7.224c.147 0 .315-.021.315-.231a.452.452 0 0 0-.21-.315l-1.155-.861c-.126-.084-.252-.21-.378-.21s-.21.1-.336.252l-.735.861h-4.347v-2h5.5c.147 0 .315-.021.315-.231a.452.452 0 0 0-.21-.315l-.966-.756c-.105-.084-.273-.231-.378-.231s-.21.105-.336.273l-.546.756h-3.379v-1.823h5.418c.126 0 .315-.021.315-.231a.5.5 0 0 0-.21-.336l-.924-.693c-.126-.084-.294-.231-.4-.231s-.231.168-.336.294l-.546.693h-3.317v-1.848h6.468c.126 0 .315-.021.315-.21 0-.147-.1-.231-.21-.315l-1.2-.9c-.084-.063-.252-.231-.4-.231s-.252.189-.336.315l-.546.84h-4.62c.651-.651 1.281-1.3 1.89-2.016.168 0 .861-.021.861-.462a.292.292 0 0 0-.21-.252l-2.226-.8a9.718 9.718 0 0 1-.958 3.527h-3.8l-.168-.126c.756-1.008 1.008-1.386 1.344-1.911.231 0 .861-.042.861-.378a.4.4 0 0 0-.252-.336l-1.685-.945c-.714 2.583-3.591 6.552-5.145 8l.126.147a15.065 15.065 0 0 0 3.419-2.981 68.739 68.739 0 0 1-.063 3.8c-.021.483-.168 2.6-.168 2.982 0 .357.315.462.609.462a1.082 1.082 0 0 0 .882-.483 1.529 1.529 0 0 0 .042-.546h3.763a9.385 9.385 0 0 1 .084 1.512h-5.418c-.294 0-1.785-.021-3.234-.147l.42.84a12.959 12.959 0 0 1 2.478-.189h4.305a22.467 22.467 0 0 1-7.1 5.544l.063.168a18.158 18.158 0 0 0 8.5-5.019c0 1.7 0 1.89-.021 2.625-.021.294-.147 1.827-.147 2.163 0 .546.4.588.651.588.966 0 .966-.672.966-1.008 0-.735-.126-4.263-.126-5.061h.063a11.976 11.976 0 0 0 7.077 5.355 3.964 3.964 0 0 1 1.624-1.744Zm-10.076-8.634h-3.885v-1.827h3.885Zm0-2.331h-3.885v-1.848h3.885Zm0 4.83h-3.885v-2h3.885Z" fill="#263f4e"/></g></svg>