<svg xmlns="http://www.w3.org/2000/svg" width="80" height="76.265" data-name="レイヤー 2"><g data-name="レイヤー 1"><g fill="#263f4e" data-name="グループ 183"><g data-name="グループ 181"><path d="M66.652 65.283v-.229h-.019v-.047h-.023v-.206c-.023-.07-.047-.14-.066-.206l-.047-.023v-.093l-.07-.047-.023-.07h-.023v-.089l-.116-.093-.023-.047h-.047v-.047h-.047v-.023l-.159-.023v-.023h-.047v-.031h-.318v-.023a.5.5 0 0 0-.252.043h-.163a.023.023 0 0 1 0 .023h-.043v.023h-.163v.027h-.136v.023h-.047v.023h-.089v.023h-.047v.027h-.093l-.047.066-.07.023v.047c-.023.023 0 0-.023.043.062.05.062.1.159.116a.35.35 0 0 0 .047.093l.481-.043.023-.043.388-.019v.023h.182v.023h.093v.023h.066v.023h.047l.112.14h.023l.023.116h.023v.116h.023v.066h.019a.209.209 0 0 1 0 .07h.023v.229a1.361 1.361 0 0 1 .043.415v.229a2.326 2.326 0 0 1 .019.593h-.027a1.5 1.5 0 0 1-.023.322l-.047.023c-.019.182-.035.365-.05.547a1.652 1.652 0 0 0-.05.365v.233a3.338 3.338 0 0 1-.023.458h-.023v.116h-.023v.318h-.054v.122a1.085 1.085 0 0 1-.027.295h-.023v.07h-.023l-.023.182h-.023v.14h-.023a2.1 2.1 0 0 1-.027.225h-.023v.163h-.023a.423.423 0 0 0 0 .066h-.023v.07h-.019c0 .081-.019.167-.027.252h-.023v.047h-.023v.043h-.054v.163h-.019v.163h-.023v.07h-.023v.112h-.023a.093.093 0 0 0 0 .047h-.023v.089h-.023v.163h-.023v.047h-.025v.116h-.019v.116h-.023v.159h-.023v.186l-.047.019-.047.229h-.023v.047h-.023c-.023.136-.047.271-.074.407h-.021v.047h-.023v.147l-.047.023-.023.206h-.023v.07h-.023a.453.453 0 0 1-.027.186h-.019a.8.8 0 0 1-.027.252h-.088v.2h-.023v.066h-.023l-.047.275-.05.023v.116h-.023v.206l-.066.043v.047h-.023v.07h-.023a.081.081 0 0 0 0 .043h-.022a.42.42 0 0 0 0 .07h-.023c0 .081-.019.167-.027.252h-.035l-.047.206h-.023l-.023.093h-.022v.159h.023c.039.143.078.043.159.093v.016a.334.334 0 0 0 .3-.159l.047-.019v-.07l.047-.023v-.043h.019v-.074l.05-.023.023-.159c0-.027-.035 0-.023-.023l.047-.023v-.159h.023v-.047h.023v-.089h.023l.023-.093h.023v-.066h.023v-.206h.019V74.3h.043v-.163h.023l.023-.089h.023v-.159h.023v-.047h.023v-.14h.023v-.019h.023v-.229l.047-.023v-.225h.023l.023-.159.047-.023v-.116h.023v-.116h.027l.023-.248h.012l.023-.159h.023v-.093h.023l.047-.136h.023v-.07h.023v-.043a.023.023 0 0 1 .023 0v-.186h.023v-.066h.023v-.14h.023v-.116h.023v-.089h.023v-.14l.047-.019v-.047h.039v-.159h.023v-.093h.023v-.116h.023v-.044h.023l.023-.182h.023a.19.19 0 0 1 0-.047v-.093h.023v-.182h.023v-.096h.023v-.039h.023v-.159h.019v-.14h.023l.023-.275.047-.023v-.089h.043v-.116h.027l.023-.365h.023v-.14h.019a.537.537 0 0 1 .027-.206h.023l.023-.341s-.027 0-.019-.047h.019a2.292 2.292 0 0 1 .031-.458h.023l.023-.458v-.023h.023l.023-.271h-.023a.388.388 0 0 1 .023-.163h.023v-.271h.023v-.186a.233.233 0 0 0 0-.136h.023v-.294h-.023a.437.437 0 0 0-.019-.159h.023v-.047h.023c.023-.074-.031-.109-.023-.163h.023a.775.775 0 0 0-.027-.376Z" data-name="パス 1"/><path d="M67.044 60.277v-.047a.163.163 0 0 0-.116.047h-.089v.023a.225.225 0 0 0-.093.206c-.047 0-.019 0-.047-.023s-.151 0-.229.023l-.047.066-.206.043c-.019.031-.031.062-.047.093h-.093v.023l-.093.066v.089l-.14.019a.516.516 0 0 1-.159.206v.023l-.14.023c-.027.019-.027.085-.047.112l-.14.112v.047l-.229.159c0 .023 0 .1-.047.116h-.136l-.023.07-.07.047h-.07v.023l-.047.023v.047l-.043.023a1.031 1.031 0 0 0-.163.2h-.047v.047h-.047c0 .031-.031.062-.047.093h-.047v.023c-.066.039 0-.019-.066.043h-.015v.093l-.07.023v.023l-.07.047v.043l-.07.047c0 .047 0 .07.023.093h-.047v.047l-.116.043c-.023.027 0 .058-.023.093h-.027l-.043.066h-.047v.023h-.047l-.093.116-.047.023-.023.066-.136.047c-.031.023 0 .054-.023.093a.3.3 0 0 0-.07.043l-.023.093-.07.023c-.027.019-.031.085-.047.112h-.023l-.093.112h-.047l-.023.089c-.078 0-.1.058-.112.14h-.05c-.031.035-.062.078-.089.112h-.031v.07l-.047.023-.047.066c-.062.043-.093.027-.116.112a.411.411 0 0 0-.136.07.631.631 0 0 1-.027.116.283.283 0 0 0-.159.089v.066h-.023c-.035.043-.058.054-.07.116h-.054a.8.8 0 0 1-.07.182h-.023v.047l-.07.043v.1l-.047.023-.023.089c-.039.058-.089.039-.116.136a.5.5 0 0 0-.256.275h-.043c0 .066-.035.047-.047.066v.093l-.159.136h-.05a.5.5 0 0 1-.07.178h-.023v.047l-.043.023v.047a.731.731 0 0 0-.07.047h-.054l-.023.047h-.023l-.023.089-.07.047v.043h-.019v.14l-.182.112v.023l-.07.047c-.058.1.058.116-.093.159a.775.775 0 0 1-.3.361v.1h-.047l-.066.047v.047l-.047.019v.047l-.047.023a.817.817 0 0 0-.023.093.132.132 0 0 0-.047.023v.043a.023.023 0 0 1-.023 0v.07l-.116.023-.116.2-.089.047a.185.185 0 0 1-.027.116c-.027.039-.078 0-.089.136-.1.027-.027 0-.07.07l-.05.019v.05l-.159.132v.07l-.093.043v.05h-.023v.112h-.023a.81.81 0 0 1-.023.093h-.023v.043l-.089.047v.093h-.019v.047a.363.363 0 0 0-.07.047v.043l-.047.023a.21.21 0 0 1-.023.116l-.047.023v.047h-.021v.043l-.186.159v.07l-.047.023v.043h-.023v.066l-.116.066c-.023.031 0 .058-.023.093l-.07.047a.473.473 0 0 0-.116.252l-.07.019-.023.07.023.136c0 .023-.07 0-.093.023v.023l-.043.023v.047l-.047.019a.5.5 0 0 0-.023.07h-.023l-.027.07c-.089.027-.027 0-.066.066h-.027a.093.093 0 0 0 0 .047l-.07.043v.047l-.07.047v.047h-.047c-.027.043 0 .109-.023.163l-.14.089v.07h-.047a.023.023 0 0 1-.023 0v.182l-.182.159-.023.093-.047.019-.023.07h-.023v.07l-.163.136v.047h-.043v.093l-.116.089a.185.185 0 0 1-.027.116l-.089.07a.836.836 0 0 1-.05.206c-.124.035-.043.058-.093.136l-.136.112v.07l-.159.136v.066h-.023v.047h-.027v.07l-.07.047v.047h-.043v.093l-.047.023v.089l-.047.023-.023.07-.066.043a.125.125 0 0 1-.027.093h-.023v.047a.116.116 0 0 0-.043.023.954.954 0 0 0-.027.112h-.04v.066l-.047.023-.023.093c-.124.039-.023.031-.07.112l-.066.047a.337.337 0 0 0-.027.066l-.043.023c-.05.062-.035.1-.027.159l-.089.07c-.019.054-.031.1-.047.159l-.047.023v.047h-.047l-.023.093h-.023v.112h-.023v.047l-.047.023v.047h-.023v.047h-.028v.089l-.074.047c-.058.093 0 .136-.116.206a.609.609 0 0 0 .043.322h.182v.023c.132 0 .19 0 .229-.093v-.116c.035-.019.062-.043.1-.066v-.07l.043-.019v-.05h.023v-.043h.023l-.023-.07.05-.019v-.047l.047-.023v-.047h.023a.82.82 0 0 1 .023-.093h.023v-.066h.019v-.047h.023v-.043h.023v-.047l.047-.023v-.116l.047-.019a.406.406 0 0 1 .05-.14l.066-.043v-.047l.093-.066v-.07h.019a.6.6 0 0 0 .117-.301.248.248 0 0 1 .07-.023 1.63 1.63 0 0 1 .047-.186.8.8 0 0 0 .093-.066v-.047h.023v-.031l.093-.066c.035-.066 0-.155.023-.206l.093-.047v-.047h.047a.082.082 0 0 1 .023-.07h.023a.839.839 0 0 1 .027-.093l.089-.043.023-.093.047-.023.023-.112h.016a.469.469 0 0 1 .019-.07h.047a2.676 2.676 0 0 0 .093-.252h.047a.6.6 0 0 1 .023-.089h.023v-.07l.047-.023v-.089h.023a.213.213 0 0 0 .047-.093h.047l.14-.159h.023l.023-.136.14-.112v-.047l.047-.023.047-.136.043-.023v-.047l.093-.066a.249.249 0 0 0 .023-.07l.05-.023a.246.246 0 0 1 .019-.116l.047-.019a.125.125 0 0 1 .027-.093c.07-.112.2-.186.233-.341h.047c.031-.019 0-.058.023-.089l.066-.047v-.07h.047v-.136h.023a.213.213 0 0 0 .047-.093c.14-.035.043-.043.093-.136l.093-.07v-.043l.047-.023v-.043l.093-.066.023-.093.116-.089v-.07l.047-.023v-.047l.066-.043v-.047h.023v-.047h.015v-.07l.081-.023.023-.089.047-.023v-.043h.023l.023-.07c.089-.023.031 0 .07-.07h.023v-.066l.07-.043a.482.482 0 0 1 .023-.182c.093-.027.089-.07.14-.14l.066-.043v-.07l.093-.043a.2.2 0 0 1 .023-.116l.047-.023v-.047l.07-.047a.748.748 0 0 0 .163-.271c.132-.031.047-.039.093-.112l.07-.043v-.012h.047c.031-.039.062-.074.089-.112h.047a.252.252 0 0 1 .116-.206v-.023l.07-.023.023-.112a.26.26 0 0 1 .047-.023.488.488 0 0 0 .14-.182c.054 0 .05-.023.089-.047v-.089c.124-.031.05-.039.093-.112h.023l.023-.07c.136-.035.054-.085.116-.159l.116-.093v-.043l.047-.023v-.07l.116-.089c.047-.074 0-.128.023-.182l.07-.023.023-.047h.047a.3.3 0 0 0-.023-.14l.209-.07.047-.019v-.093l.112-.07v-.047l.05-.043v-.047h.023v-.047h.023v-.07l.182-.112v-.043l.07-.043.023-.07h.047v-.07l.047-.019v-.116h.023v-.05a.166.166 0 0 0 0-.062l.07-.027.023-.043h.047l.047-.093h.039l.023-.116c.093-.023.109-.078.14-.159h.047c.031-.132.07-.1.163-.159a.7.7 0 0 1 .07-.089h.019l.023-.047h.047a.732.732 0 0 0 .093-.182.287.287 0 0 0 .233-.271c.132 0 .078-.05.136-.112l.07-.019c.031-.027.027-.085.047-.116h.023a.353.353 0 0 0 .1-.159.178.178 0 0 0 .136-.159c.081-.019.1-.058.163-.089v-.07h.07v-.023c.062 0 .054-.027.089-.066h.023v-.078l.116-.07v-.07c.058 0 .039 0 .07-.043h.043v-.116h.023l.047-.066h.047v-.028l.07-.047v-.047h.023v-.043l.275-.229v-.07l.07-.043.023-.07h.07l.07-.089h.019v-.047l.116-.07.116-.159h.047l.047-.066h.1l.116-.14v-.047c.047-.07.1-.019.14-.136.109 0 .089-.047.136-.112l.05-.023v-.093c.027-.031.058 0 .093-.023a.314.314 0 0 0 .093-.206.341.341 0 0 0 .206-.043v-.023h.116v-.023a.1.1 0 0 0 .07-.089.128.128 0 0 0 .093-.047h.023v-.066h.089l.093-.116h.023l.023-.07h.093s.027-.043.047-.066h.047v-.027h.047l.07-.023.023-.089c-.1-.016-.116-.066-.186-.109Z" data-name="パス 2"/><path d="M42.918 63.065h.116v.023c.159.05.271-.058.365-.085h.14v-.023h.043v-.023h.163l.023-.047h.411v-.023h.031a.027.027 0 0 0 0-.019h.159v-.023h.116l.023-.047h.159a.023.023 0 0 0 0-.023l.3.047.229-.019v.023h.066v.023h.112v.023h.159l.023.047c.085.039.078-.039.136.047a.221.221 0 0 0 .163-.043.291.291 0 0 0-.023-.163l-.043-.023v-.093h-.027l-.023-.066a.813.813 0 0 0-.093-.023v-.047h-.163l-.066-.093-.275-.023a2.261 2.261 0 0 0-.686-.074c-.066.058-.237 0-.341.039v.023h-.229v.058h-.062a.093.093 0 0 1-.023.043l-.663.085c-.124.05-.178.229-.3.3-.016.116-.019.178.081.2Z" data-name="パス 3"/><path d="M45.415 65.031c.116 0 .089 0 .159-.043 0-.12 0-.089-.043-.159-.085 0-.1 0-.14.043v-.089h-.023c-.066-.081-.027 0-.093-.047s-.043-.066-.066-.093h-.112a.1.1 0 0 1-.023-.047h-.186v.023h-.07v.023h-.023v-.023h-.136v.023H44.5v-.023l-.71-.031c-.1.081-.45-.027-.593.019v.023h-.07l-.023.043h-.07v.023l-.093.07c0 .043 0 .019-.023.043 0 .124 0 .155.066.209v.021h.116l.023.043h.07v.027h.5v-.023a1.407 1.407 0 0 1 .477.027c.085.023.151-.027.209 0s0 0 .023 0h.365v-.027h.275v-.023h.116l.023-.047c.109-.047.112.047.182-.07v.07a.035.035 0 0 1 .043.012Z" data-name="パス 4"/><path d="M58.322 65.151h.206a.206.206 0 0 0 .163.05v-.023h.047v-.027h.136v-.019l.229-.047v-.023h.047l.023-.043h.066v-.023l.093-.023v-.023h.186v-.023h.07v-.023h.089v-.023h.093v-.023h.112v-.023h.345v-.07h.047l.023-.047h.047v-.023l.271-.019.023-.043c.047 0 .116.058.186.023a.023.023 0 0 1 0-.023l.066-.023v-.159c-.078-.1-.035-.027-.14-.07v-.023h-.043v-.023l-.14.023-.229-.023v.019h-.088v.023a.035.035 0 0 1-.047-.023l-.206.023v.023h-.14v.023h-.023c-.039 0-.109-.07-.178-.05l-.093.023v.023h-.159a.023.023 0 0 0 0 .023h-.07v.023h-.136v.023h-.14l-.023.047a.21.21 0 0 0-.116.023v.023h-.047v.023h-.209v.023h-.089v.019l-.093.023v.089h-.047l-.047.07h-.023v.043l-.116.093a.387.387 0 0 0 .023.159c.048-.003.051.028.051.028Z" data-name="パス 5"/><path d="M26.007 74.776h.136a.171.171 0 0 0 .031.043.272.272 0 0 1 .039-.062v-.05c.016-.019-.229.093-.206.07Z" data-name="パス 6"/><path d="m37.516 72.349-.023.047h-.07c0 .027-.031.047-.047.07h-.047s0 .031-.043.047-.019.089-.027.136a.229.229 0 0 0-.112.07v.019l-.14.047-.14.159h-.027l-.07.089h-.047l-.116.136-.093.07v.023h-.062v.035c-.031.027-.027 0-.043.066a.353.353 0 0 0-.163.089l-.023.047h-.07v.047l-.14.043-.07.089-.093.023a.726.726 0 0 1-.047.07l-.066.043a.023.023 0 0 0 0 .023h-.054l-.093.112h-.047l-.047.07h-.047l-.023.047h-.047l-.047.043h-.039v.023h-.043l-.023.047h-.07l-.047.07h-.07a.686.686 0 0 1-.047.066l-.066.023v.023c-.054.031-.116 0-.186.019a.023.023 0 0 1 0 .023.33.33 0 0 1-.155.023.023.023 0 0 1 0-.023c-.209 0-.221-.07-.341-.14v-.776l-.023-.252h.023c.043-.14 0-.353.027-.477s-.066-.19-.043-.256l.047-.019v-.047h.023v-.322l.047-.023v-.206h.023v-.159h.023v-.07h.023v-.229l.043-.023v-.209h.025v-.182h.023v-.07h.012v-.182a1.35 1.35 0 0 0 .074-.411.95.95 0 0 1 .027-.275v-.159h.023l.023-.093h.018c0-.151.019-.306.027-.458h.023v-.136c0-.031-.027 0-.023-.023h.023v-.111h.023v-.136a.023.023 0 0 1 .023 0l-.023-.252-.112-.163h-.182l-.023.047h-.07a.167.167 0 0 1-.047.043c0 .163 0 .229.136.256a.221.221 0 0 1-.047.089h-.023v.14h-.047v.163h-.023l-.023.089h-.023v.093h-.023c0 .244-.019.489-.031.733h-.023v.178h-.022v.14h-.023v.112h-.023v.275h-.023v.066h-.021v.136h-.023v.159h-.023v.066h-.019v.14h-.023v.112h-.062v.07h-.027v.093h-.023v.159h-.023a.422.422 0 0 1 0 .07h-.023v.318l-.047.027a2.113 2.113 0 0 1-.027.411v.089h-.023a.182.182 0 0 0 0 .136h.023v.023h-.023v.159h-.023v.322a2.932 2.932 0 0 0 .066.8c.031.128-.023.221.039.322l.136.116.023.043h.047v.047h.1l.023.047h.047a.023.023 0 0 0 0 .023l.089.023v.023h.551l.023-.047h.14a.238.238 0 0 1 0-.047h.093a.261.261 0 0 0 .023-.047h.093l.023-.043h.066l.047-.07h.047l.023-.043.14-.047.043-.07h.084l.047-.066h.047l.093-.116.093-.023v-.043h.07l.116-.136h.047l.047-.07.07-.023.023-.043h.047a.728.728 0 0 1 .047-.07h.043c0-.023.031-.047.05-.066h.043a.543.543 0 0 1 .047-.07h.047l.047-.07h.047l.07-.089h.047l.07-.093.089-.019.093-.116h.047l.116-.136h.07a.023.023 0 0 1 0-.023l.07-.047v-.066c.124-.031.081-.078.136-.163l.066-.039v-.136l.047-.023c.043-.062.031-.116.093-.163a.388.388 0 0 0-.085-.271c-.081-.008-.109 0-.155.035Z" data-name="パス 7"/><path d="M38.04 60.75v.023h-.035v.023h-.093l-.023.047-.093.066a.023.023 0 0 1 0 .023h-.047c-.023.031-.043.062-.066.089l-.093.027-.116.155-.206.159v.047l-.14.112v.047l-.093.066v.047a.8.8 0 0 1-.093.066q-.01.024-.023.047h-.046a.775.775 0 0 1-.066.089h-.024v.05l-.07.043v.047l-.116.089v.047c-.074.019-.081.058-.14.089v.093c-.062 0-.058.023-.093.066v.066c-.054.05-.109.093-.163.136v.047l-.047.023v.07l-.047.023v.054l-.047.047h-.043v.023l-.07.047v.066l-.047.023v.047c-.023.027-.085.023-.116.043l-.109.093-.047.023-.023.07a.8.8 0 0 0-.093.066v.023c-.066.043-.093.023-.116.112h-.031v.023c-.047.039-.093.074-.14.116v.043l-.047.047h-.047v.023l-.066.047v.047h-.042v.023c-.062.054-.112.039-.14.14h-.116v.023l-.047.023v.047l-.116.066v.07c-.128.035-.1.116-.159.2l-.093.07v.047l-.116.089v.047l-.163.112v.047a.735.735 0 0 0-.07.047l-.047.136-.07.047h-.047l-.163.182-.066.023-.14.159h-.023v.089l-.116.093v.043l-.07.047v.089c0 .035-.058 0-.089.027s-.023.031-.047.043v.07c-.132.031-.05.039-.093.112l-.093.066v.07h-.023l-.023.07a.132.132 0 0 0-.116.112.174.174 0 0 0-.14.136c-.066 0-.074.023-.093.093s-.062.039-.112.066v.093c-.089.019-.093.062-.14.132h-.019v.047l-.066.023v.023l-.07.043v.047l-.159.136a.093.093 0 0 0 0 .047l-.05.023v.089l-.043.023a.318.318 0 0 0-.093.186c-.058 0-.039 0-.07.043h-.023v.047l-.07.047v.043l-.047.023-.07.089h-.049a.675.675 0 0 0-.043.07c-.1.089-.225.167-.26.318h-.043v.023l-.112.093a.688.688 0 0 0 0 .089l-.116.089v.081h-.047l-.047.047v.043l-.047.023a.494.494 0 0 1-.275.318v.023h-.047l-.023.043h-.023l-.047.14a.124.124 0 0 0-.116.112v.066h-.023c-.043.058-.081.066-.093.163-.1.023-.085.085-.14.159l-.047.019a.438.438 0 0 0-.116.206.562.562 0 0 0-.275.3c-.066 0-.058.023-.093.062h-.023v.07l-.136.112v.035l-.163.136v.047l-.047.023-.07.089-.07.047v.047l-.07.043v.116l-.136.112a.407.407 0 0 0-.019.116l-.047.023v.043l-.209.159v.07l-.043.023v.047l-.093.066v.07l-.186.159v.07c-.081.078-.167.147-.252.225v.07l-.093.043-.093.116-.047.023v.066l-.206.182v.093l-.163.136a.251.251 0 0 1-.027.136 1.275 1.275 0 0 1-.206.178v.047l-.047.023v.047l-.047.023-.023.112-.07.047-.023.066h-.027l-.023.093-.093.07-.023.089-.07.047v.047a.166.166 0 0 1-.047 0v.047l-.047.023a.493.493 0 0 1-.023.07h-.019c-.031.047 0 .1-.027.159l-.089.07v.047h-.027v.089h-.023v.136a.151.151 0 0 1-.043.023c.031 0 0 .023 0 .05v.07l.136.027v.023c.12 0 .112-.054.163-.136h.023v-.052a.205.205 0 0 1 0-.047l.023-.043h.047l.047-.047v-.047l.093-.066v-.05l.07-.047.023-.112.047-.023v-.047l.093-.066v-.05l.163-.132v-.047l.07-.047v-.089a.082.082 0 0 1 .043 0c.035-.039.062-.078.093-.116h.023v-.047l.163-.132v-.05l.066-.043v-.078l.047-.019v-.047l.047-.023v-.047l.14-.112v-.07h.062l.023-.047h.047l.047-.07c.054-.043.1-.089.163-.132s.074-.155.159-.206v-.07a.229.229 0 0 0 .163-.206h.049v-.023l.07-.043v-.05l.163-.136a.813.813 0 0 1 .023-.093c.116-.027.062-.058.116-.136l.159-.136v-.089l.047-.023.047-.066h.023v-.047l.093-.07v-.078h.023v-.047a.422.422 0 0 1 0-.07l.089-.043.07-.093.047-.019v-.047l.047-.023v-.023l.14-.112.023-.047h.043a.271.271 0 0 0 .074-.182h.043v-.023l.209-.182.023-.116h.023c.062-.066.128-.074.14-.2.066 0 .074-.023.093-.089a.14.14 0 0 0 .116-.112v-.07l.047-.023.047-.043v-.047c.039-.035.078-.062.116-.093l.07-.182h.07v-.023l.047-.019v-.047l.07-.047v-.07l.066-.019a.364.364 0 0 0 .047-.07l.14-.112v-.023l.093-.07v-.066l.182-.159v-.07l.116-.066a.12.12 0 0 1 .027-.093l.252-.225v-.047l.07-.047v-.047l.047-.019v-.07l.182-.136a.653.653 0 0 0 .023-.093l.07-.043v-.07l.116-.066v-.078l.047-.023c.07-.074.124-.074.14-.206.128-.031.171-.167.256-.244l.136-.116v-.07l.07-.043v-.074l.07-.047v-.062a.656.656 0 0 0 .14-.066.485.485 0 0 0 .047-.209c.085 0 .1 0 .116-.089.085 0 .1 0 .116-.089.14-.039.039-.043.093-.136l.093-.07.023-.043.136-.112v-.047l.07-.047a.023.023 0 0 1 0-.023l.066-.023.047-.089h.047l.093-.112.043-.023a.093.093 0 0 0 0-.047l.05-.023a.388.388 0 0 1 .023-.089l.043-.023v-.047l.07-.023v-.012c.039-.035.05-.027.07-.089.128-.035.081-.078.14-.159l.159-.112v-.027l.116-.093c.05-.066.035-.085.116-.132v-.07a.2.2 0 0 0 .089-.047v-.047h.07l.047-.066h.043v-.047l.159-.112v-.047l.186-.155a.676.676 0 0 0 .043-.07h.047l.14-.159h.023v-.047c.093-.023.089-.07.136-.136h.043a.252.252 0 0 0 .07-.116c.089-.019.07-.05.116-.112s.062-.043.089-.07v-.027l.07-.047v-.066l.047-.023a.3.3 0 0 0 .07-.136c.128-.039.047-.039.093-.116l.089-.066v-.047l.209-.182c.062-.058.1-.14.163-.206s.136-.085.163-.178c.054 0 .07-.023.089-.07v-.047l.07-.019.116-.159.07-.023.047-.043v-.047l.07-.023v-.023a.918.918 0 0 1 .116-.089v-.047l.074-.093.066-.019.047-.07h.023v-.047l.116-.089v-.047l.047-.023v-.023l.112-.066c.039-.058 0-.043.047-.093a.3.3 0 0 0-.066-.248Z" data-name="パス 8"/><path d="M54.846 62.436h.066c.035-.035.066-.074.1-.109h.058a.365.365 0 0 1 .047-.07v-.047a.229.229 0 0 0 .159-.112h.023v-.089l.047-.023a.283.283 0 0 0 .023-.159c.12 0 .093 0 .163-.047 0-.12 0-.093-.047-.159-.116 0-.089 0-.159.043v.093h-.345l-.066.089h-.047v.023c-.035.031-.031 0-.047.07-.128 0-.081.043-.14.112a.458.458 0 0 1-.163.112v.07c-.143 0-.1.031-.159.112l-.047.023-.023.047h-.07l-.023.043h-.066v.023l-.093.066v.07c-.19.019-.283.19-.388.295s-.136.1-.163.206c-.12.031-.093.112-.159.182h-.07l-.047.07h-.047v.023h-.035l-.116.159h-.07a.023.023 0 0 1 0 .023c-.043.031-.05.027-.066.093-.085 0-.1 0-.116.085-.128 0-.244.155-.326.225a.261.261 0 0 1-.023.047.093.093 0 0 1-.047 0l-.047.047v.047a.276.276 0 0 0-.047.07h-.116v.023l-.07.043-.023.07h-.1a.26.26 0 0 1-.023.047h-.023v.047l-.07.043v.047a.727.727 0 0 0-.07.047v.047l-.043.019-.07.089-.089.054c0 .023-.031.047-.043.07h-.023a.52.52 0 0 1-.027.07h-.034a.271.271 0 0 0-.136.182.345.345 0 0 0-.186.136h-.047v.047l-.159.136v.047l-.047.047h-.047l-.019.043-.093.07v.047l-.07.043v.047l-.047.023-.07.089h-.023v.07c-.039.058-.089.043-.116.136a.248.248 0 0 0-.116.043v.07c-.089.023-.066.054-.116.116l-.116.089v.023h-.047v.019c-.031.031-.031 0-.043.07h-.074v.023a.237.237 0 0 0-.089.159h-.047v.027l-.14.112-.023.07h-.07v.019l-.112.093v.066a.388.388 0 0 0-.209.14l-.023.043h-.047l-.206.229h-.043l-.027.043h-.023v.116l-.116.089v.023h-.053l-.116.159-.206.159-.023.093-.047.019v.047l-.3.271v.047l-.074.047a.093.093 0 0 1 0 .047l-.159.112v.043l-.093.07v.047l-.093.066v.047l-.093.07v.043l-.047.023-.07.093-.089.019-.163.182h-.047l-.023.047h-.023v.07l-.136.112v.039l-.209.178v.047l-.116.093v.043l-.163.14a.159.159 0 0 1-.023.043l-.089.023v.023l-.047.023v.043l-.047.023c-.047.066-.047.116-.116.159v.07c-.066 0-.066.039-.116.066v.07c-.07 0-.078.047-.116.089h-.023v.047l-.047.023v.023h-.07a.023.023 0 0 1 0 .023l-.047.023v.047l-.1.116v.066l-.07.047-.023.07h-.058v.019l-.07.047v.066l-.07.047v.023h-.043l-.116.159-.07.023a.05.05 0 0 1 0 .023l-.066.043v.047h-.023c-.05.058-.116.1-.14.182-.124.031-.081.078-.136.159l-.074.043v.07l-.14.112v.047l-.209.182v.07c-.058 0-.039 0-.07.043h-.023v.047l-.07.047v.043l-.209.182v.047l-.066.047h-.047v.027h-.047v.07l-.186.159-.047.136-.182.159a.129.129 0 0 1-.027.093l-.112.089-.047.136-.07.047v.043l-.047.023-.209.225-.07.05v.047c-.163.035-.194.182-.279.295l-.043.023-.07.089-.093.023-.047.07h-.023v.047H42.1v.043l-.07.047a.617.617 0 0 1-.023.116l-.047.019c-.074.081-.2.178-.233.3h-.023l.023.066h.136a.29.29 0 0 0 .027-.047 1.369 1.369 0 0 1 .434.027.887.887 0 0 1 .159-.2l.05-.023v-.047l.136-.112v-.047l.047-.047h.047l.093-.07.047-.07h.023v-.043l.112-.093.023-.043h.047a.519.519 0 0 1 .023-.047l.116-.093v-.047l.186-.155v-.07l.066-.043a.116.116 0 0 1 .027-.093l.182-.159v-.047l.07-.043.023-.093.116-.089v-.047l.047-.023a.411.411 0 0 0 .093-.159c.128-.035.047-.039.093-.112l.159-.136v-.031c.054-.039.109-.074.163-.116v-.043l.07-.047v-.047l.14-.112a.216.216 0 0 1 .023-.116l.047-.023a.388.388 0 0 0 .116-.159h.047a.132.132 0 0 1 .023-.047v-.043l.136-.116v-.047c.058 0 .039 0 .07-.047h.023v-.054l.047-.023.093-.112.206-.182.027-.07h.043l.047-.047V71.8h.023a.521.521 0 0 1 .027-.07l.023-.043h.047l.047-.047v-.043l.07-.05.023-.089h.023a.213.213 0 0 0 .047-.093c.1-.023.116-.081.159-.155h.027v-.047l.14-.112v-.081l.093-.07v-.043a.292.292 0 0 0 .027-.047c.07-.054.136-.035.163-.136.1-.027.116-.116.182-.182l.326-.295v-.066l.159-.136v-.05c.054-.066.128-.035.163-.155h.047v-.023l.136-.112a.093.093 0 0 0 0-.047c.047-.054.085 0 .116-.112.175-.043.206-.256.349-.341v-.066c.12-.027.116-.089.186-.159l.136-.112v-.047h.023l.047-.07.093-.066v-.047l.047-.023.023-.089.136-.112v-.093c.1 0 .1-.031.159-.066v-.07c.128 0 .128-.078.186-.159l.047-.023v-.047l.093-.066.023-.093.066-.023a.151.151 0 0 0 .023-.043h.07l.209-.229h.047v-.023l.089-.066a.191.191 0 0 1 0-.047l.275-.225v-.043h.023a.388.388 0 0 0 .116-.163c.147 0 .085-.078.159-.132h.05a.023.023 0 0 1 0-.023l.066-.047v-.047l.116-.089V66.5h.023l.047-.07h.047l.047-.066h.023v-.05l.047-.023a.508.508 0 0 0 .163-.229c.089-.023.085-.081.14-.136l.159-.132c0-.027.031-.047.047-.07h.047l.07-.047v-.047l.07-.047v-.047a.442.442 0 0 0 .182-.132l.023-.047h.047l.07-.089.206-.182v-.043l.256-.229v-.07h.085l.252-.225.023-.047h.047l.066-.1h.047l.047-.047v-.047l.047-.047h.047l.043-.07c.078-.047.109 0 .14-.112.186-.043.264-.209.415-.291v-.07c.112-.027.085-.07.14-.136s.089-.062.14-.089v-.07h.066v-.023l.14-.112v-.05l.047-.023v-.023c.074-.043.081.039.116-.089a.547.547 0 0 0 .206-.159l.023-.043h.07l.047-.07.322-.295Z" data-name="パス 9"/><path d="M16.533 70.79a.085.085 0 0 1 .054-.085.283.283 0 0 0 .1-.078.762.762 0 0 1 .136-.178.655.655 0 0 0 .151-.159.458.458 0 0 1 .128-.116.3.3 0 0 0 .116-.132.752.752 0 0 1 .2-.2c0-.078.206-.225.264-.271a.554.554 0 0 0 .078-.054.1.1 0 0 1 .023-.078c.023-.023.132-.058.175-.1s0-.047.023-.066.047 0 .058 0a.3.3 0 0 0 .07-.07.279.279 0 0 1 .043-.058.225.225 0 0 1 .058-.043c.043-.031.081-.058.074-.116h.043c.031-.066.132-.12.178-.175s0-.039 0-.05.031 0 .039 0a.359.359 0 0 0 .078-.058.776.776 0 0 0 .14-.132.44.44 0 0 0 .062-.05c.012-.016 0-.078.027-.1s.07 0 .1-.058 0-.058.035-.089.078-.019.112-.039.062-.07.1-.093l.089-.058c.031-.031.047-.062.089-.078s.1-.109.136-.147.194-.124.19-.194a.884.884 0 0 0 .186-.151s.039-.062.058-.085.062-.031.05-.1c.089-.062.171-.031.175-.175.05 0 .035-.047.066-.074s.062 0 .093-.039a.579.579 0 0 1 .136-.116.547.547 0 0 0 .206-.186.477.477 0 0 1 .054-.12c.039-.054.058-.047.066-.124a.175.175 0 0 0 .163-.074c.039-.039.081-.109.143-.1 0-.05.074-.054.1-.093s0-.05 0-.074a.271.271 0 0 1 .066-.05 2.071 2.071 0 0 0 .256-.229 1.376 1.376 0 0 1 .248-.2c.058-.039.047-.027.043-.093-.039 0 0-.023 0-.035 0-.124.031.031 0 .027.116-.081-.047.027.031-.085s0 .031.089-.132-.039-.252-.128-.233l-.035.039c0-.019-.1.175-.058 0-.078.039-.081.023-.074 0a.388.388 0 0 1-.035.05.093.093 0 0 0 .047 0c.027 0 .047-.027.031 0a.043.043 0 0 1-.031 0c-.043.027-.1.066-.074.043l.027-.043h-.1c-.023 0-.035.035 0 0-.039.035-.089.043-.109.093a.206.206 0 0 0-.14.066c-.027.035 0 .081-.043.116l-.085.043c-.054.039-.112.093-.155.128a1.164 1.164 0 0 1-.182.155c0 .062-.05.031-.078.066s0 .043-.023.062a.287.287 0 0 1-.1.1c-.027.023-.031.05-.058.074s-.058.023-.085.047-.027.07-.05.093-.05 0-.066.035a.442.442 0 0 1-.116.124 2.224 2.224 0 0 0-.175.151 1.164 1.164 0 0 0-.287.264l-.07.109a1.053 1.053 0 0 1-.062.1c-.039.039-.089.054-.128.093a.438.438 0 0 1-.1.085c0 .058-.221.221-.271.24 0 .124-.24.14-.229.279-.058 0-.074.027-.109.058a.931.931 0 0 1-.147.1.481.481 0 0 0-.213.3h-.066a.726.726 0 0 1-.116.128.636.636 0 0 1-.155.112c0 .058-.039.047-.07.078l-.054.043v.05a.853.853 0 0 1-.1.078.241.241 0 0 1-.05.07.49.49 0 0 1-.143.07c0 .1-.233.186-.271.271s0 .054-.019.078-.043 0-.058 0a.225.225 0 0 0-.07.066.122.122 0 0 1-.019.078c-.019.027-.062 0-.074.031a.31.31 0 0 0-.085.089c-.07.093-.19.128-.194.244-.035 0-.043.031-.07.054s0 .035-.023.043a.108.108 0 0 1-.05 0 .966.966 0 0 1-.194.136c0 .047-.023.047-.031.078s0 .078-.023.081a.489.489 0 0 1-.12.116.868.868 0 0 0-.163.174.524.524 0 0 1-.058.1c-.023.023-.058.023-.078.047s-.031.062-.054.093a.442.442 0 0 1-.089.058c0 .132-.147.221-.233.31a1.206 1.206 0 0 0-.116.159c-.039.043-.078.054-.116.1a1 1 0 0 0-.132.151v.054c0 .016-.047 0-.054.035s0 .074-.031.109-.043.019-.054.031 0 .039 0 .054-.054.043-.074.1a2.124 2.124 0 0 0 0 .271c-.074 0-.182 0-.167.109-.066 0-.136 0-.163.066a.489.489 0 0 0 .058.256c.047.058.178.058.244.039s.109-.151.124-.256a.361.361 0 0 0 .186-.066.388.388 0 0 0 .035-.132c.05 0 .054-.058.085-.085s.066-.031.089-.054 0-.047 0-.062.1-.054.089-.128c.039 0 .054-.043.081-.07l.089-.078a.705.705 0 0 0 .14-.163l.066-.1a.056.056 0 0 0 .05-.031c.012-.031 0-.039 0-.054s.089-.039.085-.1 0-.039.031-.074a.412.412 0 0 0 .066-.078 1 1 0 0 0 .143-.074c-.012-.031.047-.035.093-.1Z" data-name="パス 10"/><path d="M21.818 65.539v.035c.016-.035.012-.035 0-.035Z" data-name="パス 11"/><path d="M21.512 65.244Z" data-name="パス 12"/><path d="M22.974 65.314v-.271h-.023a.248.248 0 0 0-.031-.147.175.175 0 0 0 0-.043h.023c0-.066-.039-.1-.031-.147h.019a.683.683 0 0 0-.05-.33v-.318l.023-.132v-.147c0-.05-.035-.093-.054-.194a.776.776 0 0 0-.116-.256 3.568 3.568 0 0 0-.116-.136l-.089.035-.05.1v.392l-.039.112v.1l.019.128-.05.078a.248.248 0 0 0-.039.1v.05l.074.109a.058.058 0 0 0 0 .081.171.171 0 0 0 .089.058l-.039.233a.74.74 0 0 0 .019.209 2.2 2.2 0 0 1 .062.551h-.023v.3l-.043.023v.508a1.474 1.474 0 0 0 0 .345v.209a1.534 1.534 0 0 1 0 .423v.1h-.011l.023.3v.4h-.062v.237h-.023v.128h-.028v.213h-.023a.578.578 0 0 0 0 .081h-.023a.388.388 0 0 1 0 .066.3.3 0 0 0 .027.062h-.023a.313.313 0 0 1 0 .062v.237h-.019v.039a.313.313 0 0 0 0 .062v.151h-.023v.213h-.026v.1h-.019a.159.159 0 0 0 0 .043h-.023v.081h-.023v.147h-.019a.174.174 0 0 0 0 .043h-.023a1.029 1.029 0 0 1 0 .1h-.085v.252a.388.388 0 0 0 0 .066h-.023v.1l-.043.023a2.075 2.075 0 0 1-.027.217h-.023v.043c0 .128-.027.256-.039.388v.043h-.023v.124l-.043.027v.194h-.019v.062h-.023v.4h-.025v.039a.023.023 0 0 1-.023 0v.151a.333.333 0 0 0 0 .062h-.078l-.023.26-.039.023a.949.949 0 0 0 0 .1h-.023v.194l-.062.047v.043h-.023a.358.358 0 0 1 0 .062v.043h-.023a.357.357 0 0 1 0 .062v.233h-.026v.019h-.039v.023l-.062.027v.132l-.132.066v.047h-.039v.019c-.058.027-.116.054-.171.085v.047l-.058.031-.039.019v.019l-.136.066-.1.062v-.019l-.043.023-.167.1a1.07 1.07 0 0 0-.252.14.12.12 0 0 1-.039.019.031.031 0 0 1 0-.019l-.175.085-.24.264a.655.655 0 0 1-.112.066 3.294 3.294 0 0 1-.461.136l-.306.159-.039-.023-.128.078-.043-.027-.128.081v-.019l-.039.023-.128.078-.07-.031-.109.066-.074.043-.043-.023-.109.066-.039-.023-.163.1-.178.081h-.035l-.128.078-.085.027a.05.05 0 0 0 0-.019l-.07.047-.043-.027-.089.058v-.019l-.035.023-.089.058-.07-.031-.1.039v-.019l-.035.023-.043-.027c-.05 0-.078.054-.14.062l-.039-.023a1.007 1.007 0 0 1-.109.066v.155l-.054.031c-.023.054.023.116.066.186h.078l.1-.039.132.047.054-.035.039.027.07-.047.043.023.1-.039.07.035.233-.116a.082.082 0 0 0 .039-.023l.058-.035.07.035.194-.1v.019l.035-.023.237-.147.155-.07.043.023.074-.047.043.027.178-.112.085-.027.147-.089v.019l.054-.035.074-.043.07.031.147-.089.054-.031a.081.081 0 0 0 .039-.023l.128-.078v.019l.512-.314.26-.182.066-.039.1-.047.24-.128a.159.159 0 0 1 .043-.027l.124-.066.093-.058.644-.419.3-.209c.1-.109 0-.019-.023-.043s.043-.05.066-.078l.039-.023v-.066l.039-.023v-.043h.023v-.081l.043-.027v-.147c0-.027-.035 0-.023 0l.039-.027v-.043a.775.775 0 0 0 0-.085h.031a.148.148 0 0 0 0-.039h.1v-.134h.023a.387.387 0 0 0 0-.066h.023v-.19h.023v-.044a.023.023 0 0 1 .023 0v-.151a.659.659 0 0 0 0-.085h.023v-.147h.019v-.171h.019a.159.159 0 0 0 0-.043h.023v-.213l.039-.023v-.213h.023v-.147l.043-.027v-.08h.023v-.109h.023v-.233h.023v-.147h.023v-.085h.023a.812.812 0 0 1 .031-.132h.023v-.062a.174.174 0 0 0 0-.043h.023v-.233h.023v-.124a1.021 1.021 0 0 0 0-.109h.023v-.085h.023v-.124a.159.159 0 0 1 .043-.027v-.043h.019v-.144h.023a.659.659 0 0 1 0-.085h.019a1.025 1.025 0 0 1 0-.109h.019v-.213h.035v-.043h.023a.578.578 0 0 1 0-.081h.019v-.252a.356.356 0 0 0 0-.062h.023v-.275h.023v-.256l.039-.023v-.186h.023v-.663h.023v-.318s-.031 0-.023-.039v-.427h.023v-.45h.027v-.256a.287.287 0 0 1 0-.151h.023a1.157 1.157 0 0 0-.023-.261h.019v-.171c0 .066-.043 0-.043-.008Z" data-name="パス 13"/><path d="M15.679 62.328h.066l.085.124h.128l.023-.043c.054-.023.1 0 .151-.019v-.043h.047v-.019l.1-.019.047-.066h.1v-.019h.151a.093.093 0 0 0 .023-.043h.089l.085-.019v-.023h.147v-.023h.043l.194-.019v-.019h.194l.023-.043h.139a.051.051 0 0 1 .023-.043h.085v-.019h.132a.63.63 0 0 1 .043-.066h.194v-.019h.151l.023-.043h.149v-.039h.345a3.229 3.229 0 0 1 .671 0 3.419 3.419 0 0 0 .776-.078h.237v-.023h.209v-.019l.5.027h.147v.023h.047v-.074h.062l.023.043h.237a.209.209 0 0 0 0 .043h.146l.019.043h.066v.023h.043v.019h.072v.023h.043l.1.151h.157a.178.178 0 0 0 .043.1c.112 0 .081 0 .151-.043 0-.1 0-.147-.085-.167a.446.446 0 0 0-.039-.213l-.066-.043v-.066l-.039-.019a.081.081 0 0 1 0-.043l-.066-.043v-.015l-.085-.1h-.043a2.617 2.617 0 0 0-.535-.174l-.388-.027v-.019l-.776-.031a.023.023 0 0 1 0 .023h-.112v.023h-.26v.019h-.171v.023h-.229l-.322-.023v.019h-.578v.019h-.15v.074h-.043v.023h-.077v.023h-.175l-.043.062h-.085v.023h-.066v.023h-.171v.019h-.085v.019h-.213a.159.159 0 0 0-.023.043h-.089l-.019.039h-.171a.023.023 0 0 0 0 .023h-.283v.019h-.043v.07h-.2l-.043.062h-.062v.019h-.047v.019h-.256a.63.63 0 0 0-.043.066h-.113l-.023.039h-.077l-.023.043h-.085c-.027.039-.058.074-.085.109l-.109.019-.066.043c0 .14-.008.213.039.248Z" data-name="パス 14"/></g><g data-name="グループ 182"><path d="M39.998 0c-14.05 0-25.479 12.022-25.479 26.809s11.429 26.809 25.479 26.809S65.479 41.6 65.479 26.809 54.044 0 39.998 0Zm0 52.222c-13.278 0-24.1-11.4-24.1-25.413S26.715 1.4 39.998 1.4s24.081 11.4 24.081 25.409-10.807 25.413-24.081 25.413Z" data-name="パス 15"/><path d="M75.187 19.945a62.622 62.622 0 0 0-5.041-5.348 55.565 55.565 0 0 0-6.244-5.065 28.05 28.05 0 0 1 0 34.127 55.138 55.138 0 0 0 6.244-5.065 62.471 62.471 0 0 0 5.041-5.34A56.682 56.682 0 0 0 80 26.599a55.613 55.613 0 0 0-4.813-6.654Z" data-name="パス 16"/><path d="M16.2 9.389c-.43.3-.869.6-1.3.931a55.591 55.591 0 0 0-5.041 4.215 62.232 62.232 0 0 0-5.041 5.367A55.99 55.99 0 0 0 0 26.592a56.188 56.188 0 0 0 4.809 6.682 62.38 62.38 0 0 0 5.041 5.375 55.161 55.161 0 0 0 5.041 4.215c.427.326.861.632 1.3.927a28.085 28.085 0 0 1 0-34.4Z" data-name="パス 17"/><path d="M42.375 8.532a30.457 30.457 0 0 0-.776-3.06 22.232 22.232 0 0 0-.907-2.525 6.363 6.363 0 0 0-.175-.388l-.023-.058-.038-.08-.151-.221-.306-.442-.341.477-.124.186-.035.078-.027.062-.175.388a22.3 22.3 0 0 0-.9 2.505 29.6 29.6 0 0 0-.776 3.075 33.789 33.789 0 0 0-.446 12.072v.143a32.384 32.384 0 0 0 1.1 6.112 17.277 17.277 0 0 1 .62 6.042 18.416 18.416 0 0 1-.776 3.49 24.951 24.951 0 0 0-.651 2.6 12.572 12.572 0 0 0-.155 3.075 26.916 26.916 0 0 0 .306 3.056 20.267 20.267 0 0 0 1.629 5.592c.062.136.128.268.194.388l.027.054.039.085.054.093.109.167.283.388.318-.419.085-.143.05-.093a.775.775 0 0 0 .039-.081l.031-.058c.066-.132.128-.264.194-.388a20.4 20.4 0 0 0 1.629-5.592 27.994 27.994 0 0 0 .306-3.06 12.529 12.529 0 0 0-.155-3.071 25.875 25.875 0 0 0-.648-2.594 18.1 18.1 0 0 1-.776-3.49 17.4 17.4 0 0 1 .617-6.046 32.707 32.707 0 0 0 1.105-6.112v-.151a40.2 40.2 0 0 0 .326-5.953 39.97 39.97 0 0 0-.7-6.1Z" data-name="パス 18"/></g></g></g></svg>