<svg xmlns="http://www.w3.org/2000/svg" width="19" height="122"><defs><clipPath id="a"><path fill="#fff" d="M9-2342h19v122H9z" data-name="長方形 1447" opacity=".469"/></clipPath></defs><g clip-path="url(#a)" data-name="マスクグループ 72" transform="translate(-9 2342)"><path fill="#263f4e" d="M24.821-2337.026c0-.378-1.68-1.7-1.89-1.7a.271.271 0 0 0-.231.147 1.662 1.662 0 0 1-.609.525c-.672.315-5.481.525-6.93.525-1.323 0-1.533 0-2.415-1.239a2.432 2.432 0 0 0-.126.693 2.777 2.777 0 0 0 1.491 2.2 6.858 6.858 0 0 0 .987-.336c.231-.1 5.565-.63 6.888-.63.315 0 .462.042.462.5 0 .945-.084 2.394-.168 3.339-.546.042-3.213.189-3.4.21-3.549.294-3.675.294-4.242.294-.546 0-1.029 0-1.827-1.05a1.246 1.246 0 0 0-.105.483 3.114 3.114 0 0 0 1.615 2.192 6.691 6.691 0 0 0 .714-.273c1.05-.462 5.271-.651 7.161-.693-.042.588-.273 3.444-.315 4.095-1.869.252-6.888.567-7.287.567a2.211 2.211 0 0 1-2-1.155 1.967 1.967 0 0 0-.126.609 3.3 3.3 0 0 0 1.743 2.31.929.929 0 0 0 .315-.105 4.4 4.4 0 0 1 1.664-.546c.735-.126 4.473-.483 5.313-.588.294 1.407.819 1.512.966 1.512.483 0 .735-.9.84-1.407.231-1.239.462-7.329.546-8.715.063-.882.063-.945.546-1.26.399-.273.42-.399.42-.504Zm2.52 36.541-.168-.126c-3.3 4.2-7.1 6.615-7.6 6.615-.147 0-.147-.273-.147-.357 0-1.281.1-7.161.315-8.232a11.066 11.066 0 0 0 .294-1.2c0-.63-1.638-1.26-2.268-1.26a2.3 2.3 0 0 0-1.176.441c1.008.336 1.428.609 1.512.987.105.5.126 4.389.126 5.166a33.335 33.335 0 0 1-.189 4.179c-.021.147-.273.777-.273.924 0 .273.945 1.995 1.344 1.995.126 0 .315-.21.42-.315a6.016 6.016 0 0 1 1.323-1.176 19.29 19.29 0 0 0 6.487-7.641Zm-11.361-2.037c0-.588-1.428-1.05-1.974-1.05a2.452 2.452 0 0 0-1.386.546c1.6.42 1.617.42 1.617 2.163a12.941 12.941 0 0 1-3.885 9.954l.105.126c1.785-.735 4.494-3.129 5.04-7.644.042-.441.21-2.6.252-3.087.021-.15.231-.84.231-1.008Zm2.52 33.034c0-.945-1.218-2.142-3.906-2.142a8.887 8.887 0 0 0-1.323.1 9.353 9.353 0 0 1 3.822 2.394 1.258 1.258 0 0 0 .756.441c.504.005.651-.478.651-.793Zm8.022 1.617-.126-.084c-3.4 4.326-9.975 9.66-11.319 9.66a3.727 3.727 0 0 1-1.659-1.218 2.036 2.036 0 0 0-.063.483 3.142 3.142 0 0 0 2.037 2.835.824.824 0 0 0 .546-.315 8.88 8.88 0 0 1 1.428-1.218c6.027-4.326 8.442-8.336 9.156-10.143Zm-9.786 3.024c0-1.029-1.239-1.995-3.78-1.995a10.935 10.935 0 0 0-1.785.147 13.512 13.512 0 0 1 3.99 2.079c.525.378.714.525 1.008.525.336 0 .567-.273.567-.756Zm8.169 31.837c0-.42-1.6-1.533-1.911-1.533-.168 0-.819.609-.987.693-.147.063-2.52.315-2.919.357.063-.252.4-1.575.483-1.869a1.89 1.89 0 0 1 .315-.8c.252-.315.378-.462.378-.63 0-.567-1.554-1.239-2.184-1.239a2.219 2.219 0 0 0-1.155.336c.8.357 1.2.546 1.2 1.449a11.956 11.956 0 0 1-.462 2.9l-1.663.189c-.734.084-1.973.193-2.2.193a2.624 2.624 0 0 1-1.974-1.071 1.517 1.517 0 0 0-.147.588 2.378 2.378 0 0 0 1.638 2.121c.189 0 .252-.021.819-.315a12.306 12.306 0 0 1 3.255-.693c-1.533 5.271-3.78 7.9-6.216 9.933l.063.126c5.166-2.1 6.657-7.056 7.581-10.248 2.772-.378 3.087-.441 3.843-.5a16.963 16.963 0 0 1-1.722 8.085.519.519 0 0 1-.483.294 12.858 12.858 0 0 1-2.457-1.037l-.063.105c1.491 1.533 1.554 1.806 1.722 2.667.063.294.147.609.462.609a1.97 1.97 0 0 0 1.239-.756c1.554-1.617 2.142-5.082 2.667-8.274.126-.8.126-.9.483-1.176.311-.252.395-.315.395-.504Z" data-name="パス 72025"/></g></svg>